<svg xmlns="http://www.w3.org/2000/svg" width="340" height="236.786" viewBox="0 0 340 236.786"><defs><style>.a,.m{fill:none}.b{stroke:#9b9fa8;stroke-miterlimit:10}.c,.j,.l{fill:#0a0a0a}.d{fill:#f2f2f2;font-size:77px}.d,.e,.j{font-family:RobotoMono-Regular,Roboto Mono}.e{fill:#cccdcd}.e,.j{font-size:4px}.f{fill:#80788a}.g{fill:#f2c756}.h{fill:#62656a}.i{fill:#e18562}.l,.m,.n{stroke:#d4d4d4}.n{fill:#fff04d}</style></defs><rect width="340" height="236.786" class="a"/><rect width="243.281" height="151.296" class="b" rx="5.663" transform="translate(48.218 45.489)"/><g transform="translate(56.223 52.286)"><circle cx="1.645" cy="1.645" r="1.645" class="c"/><circle cx="1.645" cy="1.645" r="1.645" class="c" transform="translate(4.936)"/><circle cx="1.645" cy="1.645" r="1.645" class="c" transform="translate(9.872)"/></g><text class="d" transform="translate(99.85 134.126)"><tspan x="0" y="0">&lt;/&gt;</tspan></text><text class="e" transform="translate(65.074 155.762)"><tspan x="0" y="0">at </tspan><tspan y="0" class="f">ERC721Mock</tspan><tspan y="0">.</tspan><tspan y="0" class="g">&lt;unrecognized-selector&gt;</tspan><tspan y="0" class="h"> </tspan><tspan y="0">(</tspan><tspan y="0" class="i">contracts/mocks/ERC721Mock.sol:9</tspan><tspan y="0">)</tspan><tspan x="0" y="9">at </tspan><tspan y="9" class="f">ERC721Mock</tspan><tspan y="9">.</tspan><tspan y="9" class="g">_checkOnERC721Received</tspan><tspan y="9" class="h"> </tspan><tspan y="9">(</tspan><tspan y="9" class="i">contracts/token/ERC721/ERC721.sol:334</tspan><tspan y="9">)</tspan><tspan x="0" y="18">at</tspan><tspan y="18" class="h"> </tspan><tspan y="18" class="f">ERC721Mock</tspan><tspan y="18">.</tspan><tspan y="18" class="g">_safeTransferFrom</tspan><tspan y="18" class="h"> </tspan><tspan y="18">(</tspan><tspan y="18" class="i">contracts/token/ERC721/ERC721.sol:196</tspan><tspan y="18">)</tspan></text><text class="j" transform="translate(54.53 115.578)"><tspan x="0" y="0">1</tspan><tspan x="0" y="9">2</tspan><tspan x="0" y="18">3</tspan><tspan x="0" y="27">4</tspan><tspan x="0" y="36">5</tspan><tspan x="0" y="45">6</tspan><tspan x="0" y="54">7</tspan></text><g transform="translate(243.96 19.913)"><path d="M729.04,20031.008a29.782,29.782,0,0,1,26.638-29.611v-2.756h-2.93a2.776,2.776,0,0,1,0-5.553h12.133a2.776,2.776,0,1,1,0,5.553h-2.93v2.756a29.613,29.613,0,0,1,11.421,3.631l.844-1.217a2.3,2.3,0,0,1,3.207-.584l3.967,2.754a2.308,2.308,0,0,1,.579,3.207l-1.189,1.715a29.777,29.777,0,1,1-51.739,20.105Z" class="l" transform="translate(-729.04 -19993.086)"/><circle cx="24.608" cy="24.608" r="24.608" class="m" transform="translate(5.168 13.318)"/><g><path d="M354.753,51.592a18.688,18.688,0,0,0-15.994,28.35L354.753,70.3Z" class="n" transform="translate(11.091 19.242) translate(-336.068 -51.592)"/><path d="M355.608,51.592V70.3l-15.994,9.645a18.686,18.686,0,1,0,15.994-28.35Z" class="m" transform="translate(11.091 19.242) translate(-336.923 -51.592)"/></g></g></svg>